# xmcd
#
# Track frame offsets:
#	150
#	16495
#	30611
#	46938
#	62600
#	74790
#	89784
#	104735
#	119533
#	132079
#	147991
#	162894
#	176974
#	193434
#	207617
#	224044
#
# Disc length: 3188 seconds
#
# Revision: 0
# Processed by: cddbd v1.5.2PL0 Copyright (c) Steve Scherf et al.
# Submitted via: EasyCDDAExtractor 2010.4.0.0
#
DISCID=100c7210
DTITLE=Joyce Jonathan  - Sur Mes Gardes: Taiwan Special Edition
DYEAR=2010
DGENRE=Acoustic
TTITLE0=l’heure avait sonne
TTITLE1=pas besoin de toi 
TTITLE2=je ne sais pas
TTITLE3=ma musique
TTITLE4=au bar
TTITLE5=prends ton temps
TTITLE6=un peu d’espoir
TTITLE7=bien trop simple 
TTITLE8=sur mes gardes (avec Tete)
TTITLE9=tant pis
TTITLE10=les souvenirs
TTITLE11=le piege (premiere version maquette)
TTITLE12=je ne sais pas (Mandarin version)
TTITLE13=pas besoin de toi (Mandarin version
TTITLE14=l’heure avait sonne (Mandarin version)
TTITLE15=un peu d‘espoir (Mandarin version)
EXTD=
EXTT0=
EXTT1=
EXTT2=
EXTT3=
EXTT4=
EXTT5=
EXTT6=
EXTT7=
EXTT8=
EXTT9=
EXTT10=
EXTT11=
EXTT12=
EXTT13=
EXTT14=
EXTT15=
PLAYORDER=
